<svg width="24" height="24" xmlns="http://www.w3.org/2000/svg" viewBox="0 0 512 512" xml:space="preserve">
  <circle style="fill:#beebff" cx="256" cy="256" r="256"/>
    <path style="fill:#647596" d="M256 141.241h35.31v35.31H256z"/>
    <path style="fill:#fff" d="M256 176.552h35.31v35.31H256zM220.69 282.483H256v35.31h-35.31zM220.69 211.862H256v35.31h-35.31zM220.69 141.241H256v35.31h-35.31z"/>
    <path style="fill:#647596" d="M256 211.862h35.31v35.31H256zM220.69 176.552H256v35.31h-35.31zM256 282.483h35.31v35.31H256zM220.69 247.172H256v35.31h-35.31z"/>
    <path style="fill:#fff" d="M256 247.172h35.31v35.31H256z"/>
    <path style="fill:#647596" d="M185.379 141.241h35.31v35.31h-35.31z"/>
    <path style="fill:#fff" d="M185.379 176.552h35.31v35.31h-35.31zM150.069 282.483h35.31v35.31h-35.31zM150.069 211.862h35.31v35.31h-35.31zM150.069 141.241h35.31v35.31h-35.31z"/>
    <path style="fill:#b1baca" d="M150.069 141.241h17.655v35.31h-17.655zM150.069 282.483h17.655v35.31h-17.655zM150.069 211.862h17.655v35.31h-17.655z"/>
    <path style="fill:#647596" d="M185.379 211.862h35.31v35.31h-35.31zM150.069 176.552h35.31v35.31h-35.31zM185.379 282.483h35.31v35.31h-35.31zM150.069 247.172h35.31v35.31h-35.31z"/>
    <path style="fill:#fff" d="M185.379 247.172h35.31v35.31h-35.31z"/>
    <path style="fill:#647596" d="M361.931 141.241h35.31v-26.483a8.829 8.829 0 0 0-8.828-8.828H361.93v35.311z"/>
    <path style="fill:#fff" d="M361.931 141.241h35.31v35.31h-35.31zM326.621 247.172h35.31v35.31h-35.31zM326.621 176.552h35.31v35.31h-35.31zM326.621 105.931h35.31v35.31h-35.31z"/>
    <path style="fill:#647596" d="M361.931 176.552h35.31v35.31h-35.31zM326.621 141.241h35.31v35.31h-35.31zM361.931 247.172h35.31v35.31h-35.31zM326.621 211.862h35.31v35.31h-35.31z"/>
    <path style="fill:#fff" d="M361.931 211.862h35.31v35.31h-35.31z"/>
    <path style="fill:#647596" d="M291.31 105.931h35.31v35.31h-35.31z"/>
    <path style="fill:#fff" d="M291.31 141.241h35.31v35.31h-35.31z"/>
    <path style="fill:#647596" d="M291.31 176.552h35.31v35.31h-35.31zM291.31 247.172h35.31v35.31h-35.31z"/>
    <path style="fill:#fff" d="M291.31 211.862h35.31v35.31h-35.31z"/>
    <path style="fill:#647596" d="M326.621 282.483h35.31v35.31h-35.31z"/>
    <path style="fill:#fff" d="M361.931 317.793h26.483a8.829 8.829 0 0 0 8.828-8.828v-26.483h-35.31v35.311zM291.31 282.483h35.31v35.31h-35.31z"/>
    <path style="fill:#556482" d="M150.069 247.172h17.655v35.31h-17.655z"/>
    <path style="fill:#647596" d="M220.69 317.793H256v35.31h-35.31zM150.069 317.793h35.31v35.31h-35.31z"/>
    <path style="fill:#fff" d="M185.379 317.793h35.31v35.31h-35.31zM256 317.793h35.31v35.31H256z"/>
    <path style="fill:#556482" d="M150.069 317.793h17.655v35.31h-17.655zM150.069 176.552h17.655v35.31h-17.655z"/>
    <path style="fill:#647596" d="M141.241 128.898a8.828 8.828 0 0 0-8.828 8.828v342.478c5.749 3.176 11.648 6.101 17.655 8.836V137.726a8.826 8.826 0 0 0-8.827-8.828z"/>
    <path style="fill:#d9f3ff" d="M97.103 167.724H70.621a8.829 8.829 0 0 0 0 17.656h26.483a8.829 8.829 0 0 0 8.828-8.828 8.83 8.83 0 0 0-8.829-8.828zM264.828 388.414H220.69a8.829 8.829 0 0 0 0 17.656h44.138a8.829 8.829 0 0 0 0-17.656zM353.103 423.724h-52.966a8.829 8.829 0 0 0 0 17.656h52.966a8.829 8.829 0 0 0 0-17.656zM335.448 61.793h-17.655a8.829 8.829 0 0 0 0 17.656h17.655a8.829 8.829 0 0 0 0-17.656zM300.138 388.414h-8.828a8.829 8.829 0 0 0 0 17.656h8.828a8.828 8.828 0 0 0 0-17.656z"/>
    <path style="fill:#d9f3ff" d="M79.448 185.379H52.966a8.829 8.829 0 0 0 0 17.656h26.483a8.829 8.829 0 0 0 8.828-8.828 8.83 8.83 0 0 0-8.829-8.828z"/>
    <path style="fill:#ebf9ff" d="M211.862 79.448h-52.966a8.829 8.829 0 0 0 0 17.656h52.966a8.829 8.829 0 0 0 0-17.656z"/>
    <path style="fill:#ebf9ff" d="M238.345 61.793h-44.138a8.829 8.829 0 0 0 0 17.656h44.138a8.829 8.829 0 0 0 8.828-8.828 8.83 8.83 0 0 0-8.828-8.828zM370.759 335.448h-44.138a8.829 8.829 0 0 0 0 17.656h44.138a8.829 8.829 0 0 0 8.828-8.828 8.83 8.83 0 0 0-8.828-8.828z"/>
    <path style="fill:#ebf9ff" d="M388.414 353.103h-26.483a8.829 8.829 0 0 0 0 17.656h26.483a8.829 8.829 0 0 0 8.828-8.828 8.83 8.83 0 0 0-8.828-8.828zM423.724 353.103h-8.828a8.829 8.829 0 0 0 0 17.656h8.828a8.829 8.829 0 0 0 0-17.656zM282.483 61.793h-8.828a8.829 8.829 0 0 0 0 17.656h8.828a8.829 8.829 0 0 0 8.828-8.828 8.83 8.83 0 0 0-8.828-8.828z"/>
    <path style="fill:#fff" d="M256 105.931h35.31v35.31H256z"/>
    <path style="fill:#b1baca" d="m256 105.931 35.31 35.31H256z"/>
</svg>
