<?xml version="1.0" encoding="UTF-8" standalone="no"?>
<svg
   version="1.0"
   width="124.000000pt"
   height="124.000000pt"
   viewBox="0 0 124.000000 124.000000"
   preserveAspectRatio="xMidYMid meet"
   id="svg2"
   sodipodi:docname="zdrava.svg"
   inkscape:version="1.3 (0e150ed6c4, 2023-07-21)"
   xmlns:inkscape="http://www.inkscape.org/namespaces/inkscape"
   xmlns:sodipodi="http://sodipodi.sourceforge.net/DTD/sodipodi-0.dtd"
   xmlns="http://www.w3.org/2000/svg"
   xmlns:svg="http://www.w3.org/2000/svg">
  <defs
     id="defs2">
    <inkscape:path-effect
       effect="fillet_chamfer"
       id="path-effect1"
       is_visible="true"
       lpeversion="1"
       nodesatellites_param="F,0,0,1,0,15.75,0,1 @ F,0,0,1,0,15.75,0,1 @ F,0,0,1,0,15.75,0,1 @ F,0,0,1,0,15.75,0,1"
       radius="21"
       unit="px"
       method="auto"
       mode="F"
       chamfer_steps="1"
       flexible="false"
       use_knot_distance="true"
       apply_no_radius="true"
       apply_with_radius="true"
       only_selected="false"
       hide_knots="false" />
  </defs>
  <sodipodi:namedview
     id="namedview2"
     pagecolor="#000000"
     bordercolor="#ffffff"
     borderopacity="1"
     inkscape:showpageshadow="0"
     inkscape:pageopacity="0"
     inkscape:pagecheckerboard="1"
     inkscape:deskcolor="#505050"
     inkscape:document-units="pt"
     inkscape:zoom="5.0167515"
     inkscape:cx="71.261254"
     inkscape:cy="81.227862"
     inkscape:window-width="3440"
     inkscape:window-height="1369"
     inkscape:window-x="1912"
     inkscape:window-y="-8"
     inkscape:window-maximized="1"
     inkscape:current-layer="svg2" />
  <metadata
     id="metadata1">&#10;Created by potrace 1.10, written by Peter Selinger 2001-2011&#10;</metadata>
  <path
     style="fill:#ff6600;fill-opacity:1;stroke-width:0.75"
     id="bg"
     width="124"
     height="124"
     x="0.10571185"
     y="0"
     inkscape:path-effect="#path-effect1"
     sodipodi:type="rect"
     d="m 15.855712,0 h 92.499998 a 15.75,15.75 45 0 1 15.75,15.75 v 92.5 a 15.75,15.75 135 0 1 -15.75,15.75 H 15.855712 A 15.75,15.75 45 0 1 0.10571185,108.25 V 15.75 A 15.75,15.75 135 0 1 15.855712,0 Z" />
  <g
     transform="matrix(0.11443831,0,0,-0.11443831,-5.9452852,132.75212)"
     fill="#000000"
     stroke="none"
     id="logo">
    <path
       d="m 411,1081 c -50.69535,-57.4422 42.78915,-112.88948 96.33967,-101.30583 56.86624,-6.53296 133.13568,5.72178 171.59339,-45.65929 25.62726,-78.70202 -69.44675,-92.93289 -116.4529,-125.67047 -64.29063,-17.24021 26.99668,51.23648 5.56056,82.2309 -45.95799,40.54012 -129.09677,18.6742 -180.65948,-7.18499 -68.08935,-29.12503 -6.99251,-88.95203 40.56565,-94.64435 51.46211,-21.11262 5.31515,-81.82076 -31.47022,-43.30364 -48.35371,37.12762 -111.24477,1.78917 -149.66863,-33.39239 -80.62762,-80.39875 -76.56198,-202.37889 -75.00848,-307.77663 12.33673,-39.08311 32.78621,-115.95981 -28.88509,-123.0252 29.76203,-11.2168 126.87962,-27.28391 76.01521,29.0215 -43.45856,76.84103 -35.95194,170.48355 -21.97494,254.29626 16.62449,76.71366 69.0319,160.09947 154.05713,167.98735 39.72504,11.07313 105.9505,-63.38426 43.84089,-67.04777 -55.0653,39.20428 -126.90124,21.41394 -146.72938,-45.85283 -46.77962,-89.96306 -52.13747,-205.75218 -3.25737,-295.88051 24.6914,-61.21635 110.82893,-65.13531 141.80033,-6.63415 29.52176,41.69367 86.20301,143.00605 -6.09188,145.35022 -34.30872,-6.28824 -106.83432,-5.67279 -73.60309,47.19249 C 366.81905,572.99184 421.57906,640.99683 481,705 c 6.34901,59.33116 -21.31578,129.62012 -88.24122,120.70513 -31.28944,48.70362 71.43964,47.66764 101.38314,61.02956 28.57183,10.58222 88.92716,-4.60053 32.44627,-25.63808 -51.90018,-31.79591 -17.51634,-151.08338 41.07826,-88.68339 17.77329,24.51619 83.53064,85.83647 91.66753,36.32204 -32.8812,-59.26623 -143.97558,-62.244 -131.42791,-145.57751 3.09289,-39.48796 17.48514,-117.26712 31.18695,-130.04212 C 591.32487,608.66321 625.74717,683.27708 656.5,759.45312 717.30361,716.08421 634.13306,647.52725 623.42831,595.45303 598.57447,539.53773 573.13563,469.67383 507.23052,452.27491 449.8426,415.25098 475.88232,330.55709 424.57231,286.43604 380.27326,223.31539 298.26762,226.54167 231.34983,241.45614 c -27.44655,2.49914 -145.160694,25.75689 -107.50902,8.57923 55.66221,-40.73417 128.11932,-28.76641 191.88755,-43.05874 81.95265,-2.31479 144.84155,69.51172 165.59185,143.18082 20.75009,72.3411 102.23044,94.38611 130.46496,160.20454 24.02547,42.57704 29.63574,101.18166 71.67053,130.30053 C 726.58279,609.56579 669.65501,541.67157 669.34774,498.18956 660.85676,406.20045 663.1416,307.86218 709,225 c -21.92981,0.65263 -120.14319,-10.28345 -56.2059,-25.72606 40.41519,-18.15265 126.70824,-8.43569 71.50419,48.36128 -43.77402,91.53941 -39.80023,197.22692 -26.7211,295.2502 27.63545,53.23937 22.26173,-45.61509 19.18638,-65.51808 -4.65566,-84.49744 -4.28094,-182.38358 55.52056,-249.36707 36.04305,-46.27325 106.89861,-33.69125 138.44991,11.5178 68.39911,76.92689 70.61084,185.73981 62.71054,282.7657 0.91823,70.3712 -34.32228,158.76979 -113.46087,167.80279 -73.50374,8.22436 -112.74978,-85.5634 -84.35216,-144.56335 7.03698,-36.73237 59.60056,-121.2623 -2.26379,-128.72172 -28.57231,135.77997 -63.74773,270.36602 -86.89096,407.15675 20.2321,31.43112 62.90977,74.21592 23.8356,114.9192 -38.59927,61.07113 -118.0462,69.07256 -183.70805,72.89936 -38.57633,-24.78672 -144.40228,35.9678 -65.86982,52.5783 64.86871,1.1818 123.6336,-32.0846 187.31495,-39.0029 71.777,-44.30388 157.87389,-21.2483 235.52387,-11.727 35.53908,12.226 130.29365,-22.02033 60.17638,-52.22308 -63.30791,-11.00798 -142.64793,46.44668 -193.95089,-11.38461 -28.5472,-70.72157 70.40435,-99.79154 75.53347,-161.5838 14.62086,-34.22835 -32.69568,-67.14146 -25.96834,-14.61223 -13.18373,62.82492 -106.98976,43.44933 -68.48221,-19.72085 -0.57428,-34.09984 21.46225,-108.68133 60.68177,-56.14796 48.77472,51.43906 139.77137,50.03719 181.82983,-9.25045 73.63684,-87.40935 84.39104,-213.10979 62.42004,-321.44667 -20.1306,-86.0342 -67.59422,-174.70329 -148.79333,-215.85454 -65.4258,-20.10918 -129.50464,17.78625 -194.97271,17.95943 -23.74968,8.50792 -112.94804,8.26663 -44.20832,-13.54254 77.01447,-18.24964 157.23328,-40.27319 236.70405,-28.22003 88.14328,25.58247 139.79621,114.65891 165.17771,197.26912 22.9182,89.25917 24.0695,185.69254 0.2529,274.79916 -21.1225,67.56916 -65.42967,134.04761 -134.50508,159.00222 -58.31492,-5.18062 -72.6411,61.00674 -94.9726,100.99324 -26.97976,19.37719 -60.40255,65.86862 -8.44692,80.14476 49.08359,11.2216 97.67528,-19.53612 145.97761,-7.5805 75.56579,33.16325 16.50344,133.00103 -52.59522,106.63953 -89.85089,-2.2127 -183.00273,-18.2633 -269.44831,15.2915 -66.54148,19.7839 -134.24821,39.9697 -204.24714,40.7825 C 423.74763,1092.1939 416.84292,1086.9932 411,1081 Z M 598,683 c 3.59977,-65.85392 -87.42271,-27.87655 -31.88258,17.02355 C 587.21859,726.41786 636.15522,730.80225 598,683 Z M 854,643 C 865.26509,570.55766 892.94895,500.95157 895.5,427.14062 819.55789,433.5897 872.81632,538.68875 830.87459,581.13384 811.4065,603.53193 825.77675,714.60957 854,643 Z m -489,3 c 8.03925,-66.38796 -71.11707,-88.69025 -94.74433,-140.89958 -33.15697,-79.14549 74.25024,-67.02347 117.0578,-87.94594 38.96242,-60.49745 -67.08449,-147.75882 -116.9641,-90.12266 -42.80708,65.89731 -31.34148,150.21703 -22.29818,224.05866 C 258.29354,598.30684 305.63946,692.28584 365,646 Z m 560,-37 c 34.0555,-74.77219 15.54604,-158.67765 17.8907,-237.62383 -9.53095,-63.20461 -45.27637,-135.89701 -114.55963,-147.63134 -69.46941,23.88167 -82.92822,106.25676 -88.55588,170.03538 -6.7593,52.92509 56.3466,-51.15985 75.46466,9.79366 28.81536,67.57477 49.91262,-57.43911 89.32527,-3.10207 36.95578,59.45305 -4.19588,126.27407 -14.26678,187.58425 C 882.84723,625.42808 882.02333,680.52081 925,609 Z"
       id="path1" />
    <path
       d="m 475,650 c -13.50008,-38.87078 44.86941,-160.07768 -34.58183,-129.38154 -10.33495,24.40135 -7.46276,97.67119 -43.35377,44.81206 -36.21522,-19.18965 -63.2542,-100.7229 3.96006,-77.11422 53.17409,-3.44148 147.59894,-11.21413 109.63739,69.84826 C 505.78201,573.22794 512.87897,682.91324 475,650 Z"
       id="path2"
       style="display:inline" />
  </g>
</svg>
