<svg width="160" height="56" viewBox="0 0 160 56" fill="none" xmlns="http://www.w3.org/2000/svg">
<rect width="160" height="56" fill="black"/>
<path d="M8.56842 2.5H151.432C154.727 2.5 157.5 5.54242 157.5 9.42857V46.5714C157.5 50.4576 154.727 53.5 151.432 53.5H8.56842C5.27298 53.5 2.5 50.4576 2.5 46.5714V9.42857C2.5 5.54242 5.27298 2.5 8.56842 2.5Z" fill="black" stroke="white"/>
<path d="M15.817 43.1624C18.3326 45.6428 22.3814 45.6428 30.4789 45.6428H31.9104C40.0079 45.6428 44.0567 45.6428 46.5723 43.1624C49.0879 40.682 49.0879 36.6898 49.0879 28.7055V27.2941C49.0879 19.3098 49.0879 15.3177 46.5723 12.8373C44.0567 10.3571 40.0079 10.3571 31.9104 10.3571H30.4789C22.3814 10.3571 18.3326 10.3571 15.817 12.8373C13.3014 15.3177 13.3014 19.3098 13.3014 27.2941V28.7055C13.3014 36.6898 13.3014 40.682 15.817 43.1624Z" fill="white"/>
<path fill-rule="evenodd" clip-rule="evenodd" d="M40.93 33.8102L38.512 33.2146C38.2209 33.1323 38.0153 32.874 38.0049 32.5737L37.7032 23.7987C37.6159 22.6372 36.7415 21.7135 35.8277 21.4414C35.7764 21.4262 35.7217 21.4468 35.6913 21.4903C35.6604 21.5345 35.6723 21.5957 35.7154 21.6286C35.941 21.8008 36.5621 22.3628 36.5621 23.3323L36.5603 34.8054C36.5603 35.9133 35.4986 36.7258 34.4034 36.456L31.9481 35.8512C31.6758 35.7573 31.4867 35.5073 31.4768 35.219L31.1751 26.4433C31.0878 25.2818 30.2134 24.3581 29.2997 24.0861C29.2484 24.0708 29.1936 24.0914 29.1632 24.1349C29.1323 24.1791 29.1443 24.2403 29.1873 24.2732C29.413 24.4454 30.034 25.0075 30.034 25.9769L30.0321 35.5403L30.0335 35.5406V37.4511C30.0335 38.559 28.9718 39.3715 27.8767 39.1017L20.9414 37.3935C19.9772 37.156 19.3011 36.3056 19.3011 35.3302L19.3011 23.8392C19.3011 22.7313 20.3629 21.9188 21.458 22.1886L25.8279 23.2649V21.1935C25.8279 20.0856 26.8896 19.2731 27.9848 19.5428L32.3545 20.6191V18.5477C32.3545 17.4398 33.4162 16.6273 34.5114 16.897L41.4466 18.6053C42.4108 18.8427 43.0869 19.6932 43.0869 20.6685V32.1596C43.0869 33.2674 42.0252 34.08 40.93 33.8102Z" fill="black"/>
<path d="M70.0473 42.8571H67.3124L62.9729 36.8846H60.6901V42.8571H58.3621V27.1457H63.9674C65.0522 27.1457 66.0241 27.3537 66.883 27.7697C67.7419 28.1857 68.4049 28.7651 68.872 29.508C69.3542 30.236 69.5952 31.0754 69.5952 32.0263C69.5952 33.2149 69.2261 34.2326 68.4878 35.0794C67.7494 35.9114 66.7625 36.4611 65.5269 36.7286L70.0473 42.8571ZM60.6901 29.2629V34.7897H63.9674C64.9317 34.7897 65.7077 34.5371 66.2954 34.032C66.8981 33.512 67.1994 32.8434 67.1994 32.0263C67.1994 31.2091 66.8981 30.548 66.2954 30.0429C65.7077 29.5229 64.9317 29.2629 63.9674 29.2629H60.6901Z" fill="white"/>
<path d="M76.2245 43.08C75.3958 43.08 74.6499 42.8794 73.9869 42.4783C73.3239 42.0623 72.8041 41.4977 72.4274 40.7846C72.0507 40.0566 71.8623 39.2394 71.8623 38.3331V31.3354H74.0773V38.1549C74.0773 39.0314 74.326 39.7446 74.8232 40.2943C75.3204 40.844 75.9608 41.1189 76.7444 41.1189C77.558 41.1189 78.2361 40.8366 78.7785 40.272C79.321 39.7074 79.5922 39.0017 79.5922 38.1549V31.3354H81.8072V42.8571H80.2251L79.7052 41.1189C79.3285 41.7429 78.8313 42.2257 78.2135 42.5674C77.6108 42.9091 76.9478 43.08 76.2245 43.08Z" fill="white"/>
<path d="M90.0645 43.08C88.6029 43.08 87.3297 42.7086 86.2448 41.9657C85.175 41.208 84.4442 40.1829 84.0524 38.8903L86.29 38.5337C86.727 39.3657 87.2468 39.9823 87.8495 40.3834C88.4523 40.7697 89.1906 40.9629 90.0645 40.9629C90.9535 40.9629 91.6768 40.7697 92.2343 40.3834C92.7918 39.9823 93.0706 39.44 93.0706 38.7566C93.0706 38.2514 92.9124 37.828 92.596 37.4863C92.2946 37.1446 91.9104 36.8697 91.4433 36.6617C90.9761 36.4537 90.3659 36.2234 89.6125 35.9709C88.6029 35.644 87.7742 35.3171 87.1263 34.9903C86.4783 34.6634 85.9284 34.2029 85.4763 33.6086C85.0394 32.9994 84.8209 32.2269 84.8209 31.2909C84.8209 30.4143 85.0394 29.6491 85.4763 28.9954C85.9284 28.3269 86.5462 27.8143 87.3297 27.4577C88.1132 27.1011 88.9872 26.9229 89.9515 26.9229C91.2926 26.9229 92.4453 27.272 93.4096 27.9703C94.374 28.6537 95.0596 29.5971 95.4664 30.8006L93.274 31.1571C92.9727 30.4737 92.5432 29.9537 91.9857 29.5971C91.4282 29.2257 90.7727 29.04 90.0193 29.04C89.2057 29.04 88.5351 29.2331 88.0078 29.6194C87.4804 29.9909 87.2167 30.5034 87.2167 31.1571C87.2167 31.6474 87.3674 32.0634 87.6687 32.4051C87.9851 32.7469 88.3694 33.0217 88.8214 33.2297C89.2885 33.4377 89.9063 33.6754 90.6748 33.9429C91.6542 34.2697 92.4679 34.604 93.1158 34.9457C93.7788 35.2726 94.3363 35.7406 94.7883 36.3497C95.2404 36.9589 95.4664 37.724 95.4664 38.6451C95.4664 39.5366 95.2253 40.3166 94.7431 40.9851C94.276 41.6537 93.6281 42.1737 92.7994 42.5451C91.9857 42.9017 91.0741 43.08 90.0645 43.08Z" fill="white"/>
<path d="M104.823 40.9406L104.619 42.8571H102.563C101.342 42.8571 100.415 42.56 99.7825 41.9657C99.1496 41.3714 98.8332 40.5171 98.8332 39.4029V33.2743H96.8216V31.3354H98.8332L99.4435 27.9926H101.048V31.3354H104.619V33.2743H101.048V39.4029C101.048 40.428 101.553 40.9406 102.563 40.9406H104.823Z" fill="white"/>
<path d="M112.209 43.08C111.019 43.08 109.957 42.8274 109.022 42.3223C108.088 41.8171 107.357 41.1114 106.83 40.2051C106.303 39.2989 106.039 38.2663 106.039 37.1074C106.039 35.9486 106.303 34.916 106.83 34.0097C107.357 33.1034 108.088 32.3977 109.022 31.8926C109.957 31.3726 111.019 31.1126 112.209 31.1126C113.4 31.1126 114.462 31.3726 115.396 31.8926C116.33 32.3977 117.061 33.1034 117.589 34.0097C118.116 34.916 118.38 35.9486 118.38 37.1074C118.38 38.2663 118.116 39.2989 117.589 40.2051C117.061 41.1114 116.33 41.8171 115.396 42.3223C114.462 42.8274 113.4 43.08 112.209 43.08ZM112.209 41.0743C113.355 41.0743 114.281 40.7103 114.989 39.9823C115.713 39.2543 116.074 38.296 116.074 37.1074C116.074 35.9189 115.713 34.9606 114.989 34.2326C114.281 33.4897 113.355 33.1183 112.209 33.1183C111.064 33.1183 110.138 33.4897 109.429 34.2326C108.721 34.9606 108.367 35.9189 108.367 37.1074C108.367 38.2811 108.721 39.2394 109.429 39.9823C110.138 40.7103 111.064 41.0743 112.209 41.0743Z" fill="white"/>
<path d="M120.755 42.8571V31.3354H122.36L122.834 32.9846C123.181 32.4051 123.61 31.9891 124.123 31.7366C124.635 31.4691 125.245 31.3354 125.953 31.3354H126.496L126.677 33.4303H125.411C124.597 33.4303 123.987 33.6606 123.58 34.1211C123.173 34.5817 122.97 35.2057 122.97 35.9931V42.8571H120.755Z" fill="white"/>
<path d="M139.34 37.0183C139.34 37.3154 139.332 37.5457 139.317 37.7091H129.666C129.787 38.7343 130.194 39.5514 130.887 40.1606C131.58 40.7697 132.461 41.0743 133.531 41.0743C134.269 41.0743 134.925 40.9331 135.498 40.6509C136.085 40.3537 136.53 39.9674 136.831 39.492L138.91 39.8263C138.458 40.8663 137.728 41.6686 136.718 42.2331C135.724 42.7977 134.616 43.08 133.396 43.08C132.235 43.08 131.196 42.8274 130.276 42.3223C129.357 41.8023 128.642 41.0891 128.129 40.1829C127.617 39.2766 127.361 38.2514 127.361 37.1074C127.361 35.9486 127.617 34.916 128.129 34.0097C128.642 33.1034 129.35 32.3977 130.254 31.8926C131.158 31.3726 132.19 31.1126 133.35 31.1126C134.496 31.1126 135.52 31.3726 136.424 31.8926C137.343 32.3977 138.059 33.1034 138.571 34.0097C139.084 34.9011 139.34 35.904 139.34 37.0183ZM133.35 33.0514C132.461 33.0514 131.693 33.3114 131.045 33.8314C130.412 34.3514 129.99 35.0497 129.779 35.9263H136.921C136.726 35.0646 136.304 34.3737 135.656 33.8537C135.023 33.3189 134.254 33.0514 133.35 33.0514Z" fill="white"/>
<path d="M61.656 21.12C60.864 21.12 60.152 20.936 59.52 20.568C58.888 20.192 58.392 19.672 58.032 19.008C57.68 18.344 57.504 17.596 57.504 16.764C57.504 15.932 57.68 15.188 58.032 14.532C58.392 13.868 58.884 13.352 59.508 12.984C60.14 12.608 60.852 12.42 61.644 12.42C62.5 12.42 63.26 12.636 63.924 13.068C64.596 13.492 65.076 14.068 65.364 14.796L64.14 14.988C63.916 14.54 63.584 14.192 63.144 13.944C62.712 13.688 62.224 13.56 61.68 13.56C61.12 13.56 60.62 13.696 60.18 13.968C59.748 14.24 59.408 14.62 59.16 15.108C58.92 15.588 58.8 16.14 58.8 16.764C58.8 17.396 58.92 17.956 59.16 18.444C59.408 18.924 59.752 19.3 60.192 19.572C60.632 19.844 61.136 19.98 61.704 19.98C62.264 19.98 62.76 19.852 63.192 19.596C63.632 19.332 63.968 18.964 64.2 18.492L65.424 18.684C65.12 19.428 64.628 20.02 63.948 20.46C63.268 20.9 62.504 21.12 61.656 21.12ZM71.6942 21H70.1462L67.8542 18.432H67.4822V21H66.3062V14.796H67.4822V17.304H67.8422L70.0382 14.796H71.4542L68.7902 17.796L71.6942 21ZM74.4908 14.676C75.2588 14.676 75.8628 14.928 76.3028 15.432C76.7508 15.928 76.9748 16.624 76.9748 17.52V21H76.1348L75.8588 20.028C75.6588 20.34 75.3908 20.6 75.0548 20.808C74.7188 21.016 74.3148 21.12 73.8428 21.12C73.4268 21.12 73.0548 21.036 72.7268 20.868C72.3988 20.7 72.1428 20.468 71.9588 20.172C71.7748 19.868 71.6828 19.528 71.6828 19.152C71.6828 18.568 71.9148 18.1 72.3788 17.748C72.8428 17.396 73.5148 17.22 74.3948 17.22H75.7988C75.7668 16.732 75.6308 16.356 75.3908 16.092C75.1508 15.82 74.8308 15.684 74.4308 15.684C74.1268 15.684 73.8588 15.756 73.6268 15.9C73.3948 16.044 73.2188 16.232 73.0988 16.464L72.0068 16.284C72.1668 15.788 72.4748 15.396 72.9308 15.108C73.3868 14.82 73.9068 14.676 74.4908 14.676ZM74.0948 20.124C74.5988 20.124 75.0068 19.96 75.3188 19.632C75.6388 19.296 75.7988 18.836 75.7988 18.252V18.18H74.4308C73.3908 18.18 72.8708 18.492 72.8708 19.116C72.8708 19.42 72.9828 19.664 73.2068 19.848C73.4308 20.032 73.7268 20.124 74.0948 20.124ZM81.5832 18.744C81.3912 18.832 81.1632 18.9 80.8992 18.948C80.6352 18.996 80.3752 19.02 80.1192 19.02C79.3752 19.02 78.8032 18.812 78.4032 18.396C78.0032 17.98 77.8032 17.392 77.8032 16.632V14.796H78.9792V16.632C78.9792 17.52 79.4072 17.964 80.2632 17.964C80.7832 17.964 81.2232 17.872 81.5832 17.688V14.796H82.7592V21H81.5832V18.744ZM86.585 14.676C87.353 14.676 87.957 14.928 88.397 15.432C88.845 15.928 89.069 16.624 89.069 17.52V21H88.229L87.953 20.028C87.753 20.34 87.485 20.6 87.149 20.808C86.813 21.016 86.409 21.12 85.937 21.12C85.521 21.12 85.149 21.036 84.821 20.868C84.493 20.7 84.237 20.468 84.053 20.172C83.869 19.868 83.777 19.528 83.777 19.152C83.777 18.568 84.009 18.1 84.473 17.748C84.937 17.396 85.609 17.22 86.489 17.22H87.893C87.861 16.732 87.725 16.356 87.485 16.092C87.245 15.82 86.925 15.684 86.525 15.684C86.221 15.684 85.953 15.756 85.721 15.9C85.489 16.044 85.313 16.232 85.193 16.464L84.101 16.284C84.261 15.788 84.569 15.396 85.025 15.108C85.481 14.82 86.001 14.676 86.585 14.676ZM86.189 20.124C86.693 20.124 87.101 19.96 87.413 19.632C87.733 19.296 87.893 18.836 87.893 18.252V18.18H86.525C85.485 18.18 84.965 18.492 84.965 19.116C84.965 19.42 85.077 19.664 85.301 19.848C85.525 20.032 85.821 20.124 86.189 20.124ZM92.1174 21H90.3774V14.796H91.5174V19.68H91.6974L94.2054 14.796H95.9454V21H94.8054V16.128H94.6254L92.1174 21ZM93.1734 13.992C92.6534 13.992 92.2174 13.856 91.8654 13.584C91.5214 13.304 91.3174 12.888 91.2534 12.336H92.2134C92.2534 12.592 92.3534 12.788 92.5134 12.924C92.6814 13.052 92.9014 13.116 93.1734 13.116C93.4454 13.116 93.6614 13.052 93.8214 12.924C93.9894 12.788 94.0894 12.592 94.1214 12.336H95.0934C95.0214 12.888 94.8094 13.304 94.4574 13.584C94.1134 13.856 93.6854 13.992 93.1734 13.992ZM100.033 21H98.8573V15.876H96.7093V14.796H102.181V15.876H100.033V21ZM108.729 17.856C108.729 18.016 108.725 18.14 108.717 18.228H103.593C103.657 18.78 103.873 19.22 104.241 19.548C104.609 19.876 105.077 20.04 105.645 20.04C106.037 20.04 106.385 19.964 106.689 19.812C107.001 19.652 107.237 19.444 107.397 19.188L108.501 19.368C108.261 19.928 107.873 20.36 107.337 20.664C106.809 20.968 106.221 21.12 105.573 21.12C104.957 21.12 104.405 20.984 103.917 20.712C103.429 20.432 103.049 20.048 102.777 19.56C102.505 19.072 102.369 18.52 102.369 17.904C102.369 17.28 102.505 16.724 102.777 16.236C103.049 15.748 103.425 15.368 103.905 15.096C104.385 14.816 104.933 14.676 105.549 14.676C106.157 14.676 106.701 14.816 107.181 15.096C107.669 15.368 108.049 15.748 108.321 16.236C108.593 16.716 108.729 17.256 108.729 17.856ZM105.549 15.72C105.077 15.72 104.669 15.86 104.325 16.14C103.989 16.42 103.765 16.796 103.653 17.268H107.445C107.341 16.804 107.117 16.432 106.773 16.152C106.437 15.864 106.029 15.72 105.549 15.72ZM114.009 21H112.269V14.796H113.409V19.68H113.589L116.097 14.796H117.837V21H116.697V16.128H116.517L114.009 21ZM122.597 17.832C122.925 17.928 123.197 18.104 123.413 18.36C123.629 18.608 123.737 18.916 123.737 19.284C123.737 19.628 123.637 19.94 123.437 20.22C123.237 20.492 122.949 20.712 122.573 20.88C122.205 21.04 121.777 21.12 121.289 21.12C120.633 21.12 120.069 20.968 119.597 20.664C119.125 20.352 118.813 19.936 118.661 19.416L119.753 19.236C120.017 19.812 120.525 20.1 121.277 20.1C121.693 20.1 122.009 20.024 122.225 19.872C122.449 19.712 122.561 19.492 122.561 19.212C122.561 18.964 122.457 18.764 122.249 18.612C122.049 18.46 121.725 18.384 121.277 18.384H120.461V17.352H121.277C121.661 17.352 121.953 17.28 122.153 17.136C122.361 16.992 122.465 16.8 122.465 16.56C122.465 16.304 122.353 16.096 122.129 15.936C121.913 15.776 121.645 15.696 121.325 15.696C121.013 15.696 120.733 15.772 120.485 15.924C120.237 16.076 120.049 16.284 119.921 16.548L118.829 16.356C119.013 15.82 119.329 15.408 119.777 15.12C120.233 14.824 120.761 14.676 121.361 14.676C121.793 14.676 122.181 14.752 122.525 14.904C122.877 15.056 123.149 15.268 123.341 15.54C123.541 15.812 123.641 16.116 123.641 16.452C123.641 16.796 123.545 17.088 123.353 17.328C123.161 17.568 122.909 17.736 122.597 17.832Z" fill="white"/>
</svg>
