<svg width='24' height='24' viewBox='0 0 24 24' xmlns='http://www.w3.org/2000/svg' xmlns:xlink='http://www.w3.org/1999/xlink'><rect width='24' height='24' stroke='none' fill='#000000' opacity='0'/>


<g transform="matrix(0.83 0 0 0.83 12 12)" >
<g style="" >
<g transform="matrix(1 0 0 1 -3.95 0)" >
<path style="stroke: rgb(0,0,0); stroke-width: 1.5; stroke-dasharray: none; stroke-linecap: round; stroke-dashoffset: 0; stroke-linejoin: round; stroke-miterlimit: 10; fill: none; fill-rule: nonzero; opacity: 1;" transform=" translate(-8.05, -12)" d="M 9.75 23.25 C 10.15 23.25 10.45 23.05 10.65 22.75 C 12.05 20.05 12.85 16.85 12.85 13.35 C 12.85 8.55001 11.35 4.14999 8.85 1.14999 C 8.65 0.949994 8.35 0.75 8.05 0.75 C 7.75 0.75 7.45 0.849994 7.25 1.14999 C 4.85 4.14999 3.25 8.55001 3.25 13.35 C 3.25 16.85 4.05 20.05 5.45 22.75 C 5.65 23.05 5.95 23.25 6.35 23.25 L 9.75 23.25 Z" stroke-linecap="round" />
</g>
<g transform="matrix(1 0 0 1 -3.95 0.82)" >
<path style="stroke: rgb(0,0,0); stroke-width: 1.5; stroke-dasharray: none; stroke-linecap: round; stroke-dashoffset: 0; stroke-linejoin: round; stroke-miterlimit: 10; fill: none; fill-rule: nonzero; opacity: 1;" transform=" translate(-8.05, -12.82)" d="M 3.30304 14.7891 L 8.04685 10.8438 L 12.797 14.7891" stroke-linecap="round" />
</g>
<g transform="matrix(1 0 0 1 -3.95 5.79)" >
<path style="stroke: rgb(0,0,0); stroke-width: 1.5; stroke-dasharray: none; stroke-linecap: round; stroke-dashoffset: 0; stroke-linejoin: round; stroke-miterlimit: 10; fill: none; fill-rule: nonzero; opacity: 1;" transform=" translate(-8.05, -17.79)" d="M 4.11334 19.4219 L 8.04738 16.15 L 11.9867 19.4219" stroke-linecap="round" />
</g>
<g transform="matrix(1 0 0 1 6.05 7.6)" >
<path style="stroke: rgb(0,0,0); stroke-width: 1.5; stroke-dasharray: none; stroke-linecap: round; stroke-dashoffset: 0; stroke-linejoin: round; stroke-miterlimit: 10; fill: none; fill-rule: nonzero; opacity: 1;" transform=" translate(-18.05, -19.6)" d="M 19.75 23.25 C 20.05 23.25 20.35 23.15 20.45 22.95 C 20.65 22.75 20.75 22.45 20.75 22.15 C 20.55 19.75 19.55 17.65 18.05 15.95 C 16.55 17.65 15.55 19.75 15.35 22.15 C 15.35 22.45 15.45 22.75 15.65 22.95 C 15.85 23.15 16.15 23.25 16.35 23.25 L 19.75 23.25 Z" stroke-linecap="round" />
</g>
<g transform="matrix(1 0 0 1 6.05 -3.65)" >
<path style="stroke: rgb(0,0,0); stroke-width: 1.5; stroke-dasharray: none; stroke-linecap: round; stroke-dashoffset: 0; stroke-linejoin: round; stroke-miterlimit: 10; fill: none; fill-rule: nonzero; opacity: 1;" transform=" translate(-18.05, -8.35)" d="M 18.05 15.95 L 18.05 0.75" stroke-linecap="round" />
</g>
<g transform="matrix(1 0 0 1 6.05 -11.25)" >
<path style="stroke: rgb(0,0,0); stroke-width: 1.5; stroke-dasharray: none; stroke-linecap: round; stroke-dashoffset: 0; stroke-linejoin: round; stroke-miterlimit: 10; fill: none; fill-rule: nonzero; opacity: 1;" transform=" translate(-18.05, -0.75)" d="M 16.55 0.75 L 19.55 0.75" stroke-linecap="round" />
</g>
</g>
</g>
</svg>
