<?xml version="1.0" encoding="utf-8"?>
<svg width="24" height="24" class="w-6 h-6 stroke-gray-700 dark:text-gray-100">
    <g stroke-linecap="round">
        <path d="M9.75 23.25c.4 0 .7-.2.9-.5 1.4-2.7 2.2-5.9 2.2-9.4 0-4.8-1.5-9.2-4-12.2-.2-.2-.5-.4-.8-.4-.3 0-.6.1-.8.4-2.4 3-4 7.4-4 12.2 0 3.5.8 6.7 2.2 9.4.2.3.5.5.9.5h3.4Z" style="stroke:#000;stroke-width:1.5;stroke-dasharray:none;stroke-linecap:round;stroke-dashoffset:0;stroke-linejoin:round;stroke-miterlimit:10;fill:none;fill-rule:nonzero;opacity:1" transform="matrix(.83 0 0 .83 2.04 2.04)"/>
        <path d="m3.303 14.79 4.744-3.946 4.75 3.945m-8.684 4.633 3.934-3.272 3.94 3.272m7.763 3.828c.3 0 .6-.1.7-.3.2-.2.3-.5.3-.8-.2-2.4-1.2-4.5-2.7-6.2-1.5 1.7-2.5 3.8-2.7 6.2 0 .3.1.6.3.8.2.2.5.3.7.3h3.4Zm-1.7-7.3V.75m-1.5 0h3" style="stroke:#000;stroke-width:1.5;stroke-dasharray:none;stroke-linecap:round;stroke-dashoffset:0;stroke-linejoin:round;stroke-miterlimit:10;fill:none;fill-rule:nonzero;opacity:1" transform="matrix(.83 0 0 .83 2.04 2.04)"/>
    </g>
</svg>
